<svg xmlns="http://www.w3.org/2000/svg" viewBox="0 0 400 300" width="400" height="300">
  <rect width="400" height="300" fill="#232029"></rect>
  <g fill="none" stroke-linecap="round" stroke-linejoin="round">

    <g stroke="#C9C4D6" stroke-width="2.4">
      <path d="M120 96 h120 a14 14 0 0 1 14 14 v52 a14 14 0 0 1 -14 14 h-78 l-26 24 v-24 h-16 a14 14 0 0 1 -14 -14 v-52 a14 14 0 0 1 14 -14 z"></path>
      <line x1="140" y1="122" x2="234" y2="122"></line>
      <line x1="140" y1="142" x2="234" y2="142"></line>
      <line x1="140" y1="162" x2="200" y2="162"></line>
    </g>
    <g stroke="#A78BFA" stroke-width="3">
      <circle cx="262" cy="196" r="34"></circle>
      <line x1="286" y1="220" x2="312" y2="246"></line>
    </g>
  </g>
</svg>